<svg width="520" height="520" viewBox="0 0 520 520" fill="none" xmlns="http://www.w3.org/2000/svg" xmlns:xlink="http://www.w3.org/1999/xlink">
<path d="M476,259C476,365.59 386.01,452 275,452C163.991,452 74,365.59 74,259C74,152.409 163.991,66 275,66C386.01,66 476,152.409 476,259Z" fill="#D9D9D9"/>
<path d="M260,260L520,260C520,314.907 502.618,368.404 470.344,412.824L260,260Z" fill="#E87D7D"/>
<path d="M260,260L470.344,412.824C438.072,457.245 392.564,490.308 340.344,507.274C288.125,524.242 231.875,524.242 179.656,507.274L260,260Z" fill="#B2E87D"/>
<path d="M260,260L179.656,507.274C140.633,494.596 105.165,472.862 76.152,443.848C47.139,414.834 25.405,379.368 12.725,340.344C0.046,301.322 -3.218,259.853 3.201,219.327C9.62,178.801 25.538,140.37 49.656,107.176L260,260Z" fill="#7DE8E8"/>
<path d="M260,260L49.656,107.176C81.929,62.755 127.436,29.692 179.656,12.725C231.875,-4.242 288.126,-4.242 340.344,12.725C392.564,29.692 438.072,62.755 470.344,107.176C502.618,151.596 520,205.094 520,260L260,260Z" fill="#B37DE8"/>
</svg>
