<svg width="48" height="48" viewBox="0 0 48 48" fill="none" xmlns="http://www.w3.org/2000/svg" xmlns:xlink="http://www.w3.org/1999/xlink">
<path d="M15,22.5C15,17.529 19.029,13.5 24,13.5L24,13.5C28.971,13.5 33,17.529 33,22.5L33,22.5C33,27.471 28.971,31.5 24,31.5L24,31.5C19.029,31.5 15,27.471 15,22.5L15,22.5Z" stroke="#60778C" stroke-width="1.5" stroke-miterlimit="3.999327"/>
<path d="M46.255,22.5C42.695,31.295 34.072,37.5 24,37.5C13.928,37.5 5.305,31.295 1.745,22.5C5.305,13.705 13.928,7.5 24,7.5C34.072,7.5 42.695,13.705 46.255,22.5Z" clip-rule="evenodd" fill-rule="evenodd" stroke="#60778C" stroke-width="1.5" stroke-miterlimit="3.999327"/>
<path d="M32.907,3.521C33.194,2.744 32.798,1.881 32.021,1.593C31.244,1.306 30.381,1.702 30.093,2.479L32.907,3.521ZM15.093,42.979C14.806,43.756 15.202,44.619 15.979,44.907C16.756,45.194 17.619,44.798 17.907,44.021L15.093,42.979ZM30.093,2.479L15.093,42.979L17.907,44.021L32.907,3.521L30.093,2.479Z" fill="#60778C"/>
<path d="M35.298,3.521C35.586,2.744 35.189,1.881 34.413,1.593C33.636,1.306 32.773,1.702 32.485,2.479L35.298,3.521ZM17.485,42.979C17.197,43.756 17.594,44.619 18.371,44.907C19.147,45.194 20.01,44.798 20.298,44.021L17.485,42.979ZM32.485,2.479L17.485,42.979L20.298,44.021L35.298,3.521L32.485,2.479Z" fill="#FFFFFF"/>
</svg>
